<?xml version="1.0" encoding="utf-8"?>
<!-- Svg Vector Icons : http://www.onlinewebfonts.com/icon -->
<!DOCTYPE svg PUBLIC "-//W3C//DTD SVG 1.1//EN" "http://www.w3.org/Graphics/SVG/1.1/DTD/svg11.dtd">
<svg version="1.1" xmlns="http://www.w3.org/2000/svg" xmlns:xlink="http://www.w3.org/1999/xlink" x="0px" y="0px" viewBox="0 0 256 256" enable-background="new 0 0 256 256" xml:space="preserve">
<metadata> Svg Vector Icons : http://www.onlinewebfonts.com/icon </metadata>
<g><g><path fill="#ffff" d="M128,10C62.9,10,10,63,10,128c0,65,52.9,118,118,118c65.1,0,118-52.9,118-118C246,63,193.1,10,128,10z M128,234.4c-58.7,0-106.4-47.7-106.4-106.4S69.3,21.6,128,21.6c58.7,0,106.4,47.7,106.4,106.4C234.4,186.6,186.7,234.4,128,234.4z"/><path fill="#ffff" d="M128,96L128,96c0.2,0,0.4,0,0.6,0c0.1,0,0.1,0,0.2,0c6-0.1,11.6,2.7,14.3,7.2c1.6,2.7,5.2,3.6,7.9,2c2.7-1.6,3.6-5.2,2-7.9c-4.1-6.8-11.1-11.4-19.3-12.6v-7c0-3.2-2.6-5.8-5.8-5.8c-3.2,0-5.8,2.6-5.8,5.8v7.6c-5.2,1.3-9.9,4-13.5,7.8c-4.4,4.7-6.7,10.7-6.4,16.9c0.6,15.8,14.6,21.1,24.8,25c10.1,3.8,14.8,6.2,15,11.3c0.1,3.1-1.1,6.1-3.3,8.6c-2.6,2.8-6.5,4.6-10.8,5l0,0c-0.2,0-0.4,0-0.6,0c-0.1,0-0.1,0-0.2,0c-5.9,0.1-11.6-2.7-14.3-7.2c-1.6-2.7-5.2-3.6-7.9-2c-2.7,1.6-3.6,5.2-2,7.9c4.1,6.8,11.2,11.3,19.3,12.6v7.1c0,3.2,2.6,5.8,5.8,5.8c3.2,0,5.8-2.6,5.8-5.8v-7.6c5.2-1.3,9.9-4,13.5-7.8c4.4-4.7,6.7-10.7,6.5-17c-0.5-13.4-12.7-18-22.5-21.7c-10.5-4-17-6.8-17.3-14.6c-0.1-3.1,1.1-6.1,3.3-8.6C119.9,98.1,123.8,96.3,128,96z"/></g></g>
</svg>